<svg id="visual" viewBox="0 0 960 540" width="960" height="540" xmlns="http://www.w3.org/2000/svg" xmlns:xlink="http://www.w3.org/1999/xlink" version="1.1"><rect x="0" y="0" width="960" height="540" fill="#EBECF0"></rect><path d="M0 367L40 359.8C80 352.7 160 338.3 240 320.8C320 303.3 400 282.7 480 293.8C560 305 640 348 720 354.5C800 361 880 331 920 316L960 301L960 541L920 541C880 541 800 541 720 541C640 541 560 541 480 541C400 541 320 541 240 541C160 541 80 541 40 541L0 541Z" fill="#000D1A" stroke-linecap="round" stroke-linejoin="miter"></path></svg>