<svg id="visual" viewBox="0 0 960 540" width="960" height="540" xmlns="http://www.w3.org/2000/svg" xmlns:xlink="http://www.w3.org/1999/xlink" version="1.1"><rect x="0" y="0" width="960" height="540" fill="#001220"></rect><defs><linearGradient id="grad1_0" x1="43.8%" y1="0%" x2="100%" y2="100%"><stop offset="14.444444444444446%" stop-color="#001220" stop-opacity="1"></stop><stop offset="85.55555555555554%" stop-color="#001220" stop-opacity="1"></stop></linearGradient></defs><defs><linearGradient id="grad2_0" x1="0%" y1="0%" x2="56.3%" y2="100%"><stop offset="14.444444444444446%" stop-color="#001220" stop-opacity="1"></stop><stop offset="85.55555555555554%" stop-color="#001220" stop-opacity="1"></stop></linearGradient></defs><g transform="translate(960, 0)"><path d="M0 243C-46.4 238.9 -92.8 234.8 -121.5 210.4C-150.2 186.1 -161.1 141.5 -178.4 103C-195.7 64.5 -219.3 32.3 -243 0L0 0Z" fill="#3cfad2"></path></g><g transform="translate(0, 540)"><path d="M0 -243C42.9 -236.9 85.9 -230.8 121.5 -210.4C157.1 -190.1 185.4 -155.5 204.4 -118C223.4 -80.5 233.2 -40.3 243 0L0 0Z" fill="#3cfad2"></path></g></svg>