<svg id="visual" viewBox="0 0 960 540" width="960" height="540" xmlns="http://www.w3.org/2000/svg" xmlns:xlink="http://www.w3.org/1999/xlink" version="1.1"><g stroke-width="1" stroke-linejoin="bevel"><path d="M569.3 267L551.3 342L631 326Z" fill="#043147" stroke="#043147"></path><path d="M631 326L658 261L569.3 267Z" fill="#001226" stroke="#001226"></path><path d="M551.3 342L616 454L631 326Z" fill="#001c2f" stroke="#001c2f"></path><path d="M658 261L626 181L569.3 267Z" fill="#043147" stroke="#043147"></path><path d="M539.3 435L616 454L551.3 342Z" fill="#043147" stroke="#043147"></path><path d="M631 326L761.7 281L658 261Z" fill="#002034" stroke="#002034"></path><path d="M391.7 246L551.3 342L569.3 267Z" fill="#000c21" stroke="#000c21"></path><path d="M391.7 246L453.7 376L551.3 342Z" fill="#000000" stroke="#000000"></path><path d="M551.3 342L453.7 376L539.3 435Z" fill="#000000" stroke="#000000"></path><path d="M626 181L534.3 160L569.3 267Z" fill="#002034" stroke="#002034"></path><path d="M726.7 416L750.7 370L631 326Z" fill="#02293e" stroke="#02293e"></path><path d="M658 261L743.7 204L626 181Z" fill="#032d42" stroke="#032d42"></path><path d="M616 454L726.7 416L631 326Z" fill="#000c21" stroke="#000c21"></path><path d="M750.7 370L761.7 281L631 326Z" fill="#002034" stroke="#002034"></path><path d="M761.7 281L743.7 204L658 261Z" fill="#000000" stroke="#000000"></path><path d="M626 181L631 80L534.3 160Z" fill="#012439" stroke="#012439"></path><path d="M534.3 160L429.7 196L569.3 267Z" fill="#001c2f" stroke="#001c2f"></path><path d="M429.7 196L391.7 246L569.3 267Z" fill="#001c2f" stroke="#001c2f"></path><path d="M453.7 376L439.7 482L539.3 435Z" fill="#032d42" stroke="#032d42"></path><path d="M539.3 435L535.3 540L616 454Z" fill="#002034" stroke="#002034"></path><path d="M350 458L439.7 482L453.7 376Z" fill="#05364c" stroke="#05364c"></path><path d="M439.7 482L535.3 540L539.3 435Z" fill="#043147" stroke="#043147"></path><path d="M616 454L661 540L726.7 416Z" fill="#000000" stroke="#000000"></path><path d="M747.7 127L631 80L626 181Z" fill="#000c21" stroke="#000c21"></path><path d="M534.3 160L448.7 95L429.7 196Z" fill="#032d42" stroke="#032d42"></path><path d="M535.3 540L661 540L616 454Z" fill="#02293e" stroke="#02293e"></path><path d="M855.3 126L747.7 127L743.7 204Z" fill="#032d42" stroke="#032d42"></path><path d="M743.7 204L747.7 127L626 181Z" fill="#032d42" stroke="#032d42"></path><path d="M631 80L560.3 67L534.3 160Z" fill="#000c21" stroke="#000c21"></path><path d="M301 210L333 275L391.7 246Z" fill="#05364c" stroke="#05364c"></path><path d="M391.7 246L333 275L453.7 376Z" fill="#02293e" stroke="#02293e"></path><path d="M301 210L391.7 246L429.7 196Z" fill="#043147" stroke="#043147"></path><path d="M560.3 67L448.7 95L534.3 160Z" fill="#002034" stroke="#002034"></path><path d="M439.7 482L430.7 540L535.3 540Z" fill="#00172a" stroke="#00172a"></path><path d="M350 458L430.7 540L439.7 482Z" fill="#012439" stroke="#012439"></path><path d="M306 328L350 458L453.7 376Z" fill="#012439" stroke="#012439"></path><path d="M750.7 370L866.3 301L761.7 281Z" fill="#05364c" stroke="#05364c"></path><path d="M761.7 281L866.3 301L743.7 204Z" fill="#043147" stroke="#043147"></path><path d="M861.3 378L866.3 301L750.7 370Z" fill="#001c2f" stroke="#001c2f"></path><path d="M861.3 378L750.7 370L726.7 416Z" fill="#001226" stroke="#001226"></path><path d="M333 275L306 328L453.7 376Z" fill="#012439" stroke="#012439"></path><path d="M885.3 481L861.3 378L726.7 416Z" fill="#00172a" stroke="#00172a"></path><path d="M661 540L771.7 540L726.7 416Z" fill="#001c2f" stroke="#001c2f"></path><path d="M310 63L301 210L429.7 196Z" fill="#001c2f" stroke="#001c2f"></path><path d="M333 275L301 210L306 328Z" fill="#001226" stroke="#001226"></path><path d="M631 80L615 0L560.3 67Z" fill="#05364c" stroke="#05364c"></path><path d="M560.3 67L520.3 0L448.7 95Z" fill="#02293e" stroke="#02293e"></path><path d="M768.7 0L615 0L631 80Z" fill="#002034" stroke="#002034"></path><path d="M615 0L520.3 0L560.3 67Z" fill="#001226" stroke="#001226"></path><path d="M448.7 95L310 63L429.7 196Z" fill="#000000" stroke="#000000"></path><path d="M884.3 155L855.3 126L743.7 204Z" fill="#012439" stroke="#012439"></path><path d="M747.7 127L768.7 0L631 80Z" fill="#043147" stroke="#043147"></path><path d="M866.3 301L884.3 155L743.7 204Z" fill="#02293e" stroke="#02293e"></path><path d="M960 237L884.3 155L866.3 301Z" fill="#05364c" stroke="#05364c"></path><path d="M771.7 540L885.3 481L726.7 416Z" fill="#001226" stroke="#001226"></path><path d="M861.3 378L960 358L866.3 301Z" fill="#032d42" stroke="#032d42"></path><path d="M520.3 0L430.7 0L448.7 95Z" fill="#001c2f" stroke="#001c2f"></path><path d="M888.3 0L768.7 0L855.3 126Z" fill="#05364c" stroke="#05364c"></path><path d="M855.3 126L768.7 0L747.7 127Z" fill="#02293e" stroke="#02293e"></path><path d="M771.7 540L878.3 540L885.3 481Z" fill="#000000" stroke="#000000"></path><path d="M430.7 0L310 63L448.7 95Z" fill="#043147" stroke="#043147"></path><path d="M223.3 422L350 458L306 328Z" fill="#000000" stroke="#000000"></path><path d="M223.3 422L290 540L350 458Z" fill="#001226" stroke="#001226"></path><path d="M350 458L290 540L430.7 540Z" fill="#000000" stroke="#000000"></path><path d="M960 473L861.3 378L885.3 481Z" fill="#000c21" stroke="#000c21"></path><path d="M960 473L960 358L861.3 378Z" fill="#001226" stroke="#001226"></path><path d="M176.3 396L223.3 422L306 328Z" fill="#002034" stroke="#002034"></path><path d="M185.3 253L306 328L301 210Z" fill="#02293e" stroke="#02293e"></path><path d="M960 358L960 237L866.3 301Z" fill="#032d42" stroke="#032d42"></path><path d="M960 72L888.3 0L855.3 126Z" fill="#000c21" stroke="#000c21"></path><path d="M960 237L960 197L884.3 155Z" fill="#02293e" stroke="#02293e"></path><path d="M430.7 0L335 0L310 63Z" fill="#05364c" stroke="#05364c"></path><path d="M185.3 149L301 210L221.3 69Z" fill="#032d42" stroke="#032d42"></path><path d="M185.3 149L185.3 253L301 210Z" fill="#000000" stroke="#000000"></path><path d="M960 540L960 473L885.3 481Z" fill="#001c2f" stroke="#001c2f"></path><path d="M127.7 446L242.3 540L223.3 422Z" fill="#032d42" stroke="#032d42"></path><path d="M223.3 422L242.3 540L290 540Z" fill="#001c2f" stroke="#001c2f"></path><path d="M185.3 253L176.3 396L306 328Z" fill="#012439" stroke="#012439"></path><path d="M221.3 69L301 210L310 63Z" fill="#043147" stroke="#043147"></path><path d="M185.3 253L144.7 395L176.3 396Z" fill="#001c2f" stroke="#001c2f"></path><path d="M960 72L855.3 126L884.3 155Z" fill="#012439" stroke="#012439"></path><path d="M236.3 0L221.3 69L310 63Z" fill="#032d42" stroke="#032d42"></path><path d="M878.3 540L960 540L885.3 481Z" fill="#000c21" stroke="#000c21"></path><path d="M960 197L960 72L884.3 155Z" fill="#001226" stroke="#001226"></path><path d="M98.7 252L144.7 395L185.3 253Z" fill="#05364c" stroke="#05364c"></path><path d="M176.3 396L127.7 446L223.3 422Z" fill="#043147" stroke="#043147"></path><path d="M335 0L236.3 0L310 63Z" fill="#012439" stroke="#012439"></path><path d="M116.7 73L72.7 200L185.3 149Z" fill="#032d42" stroke="#032d42"></path><path d="M0 379L127.7 446L144.7 395Z" fill="#032d42" stroke="#032d42"></path><path d="M144.7 395L127.7 446L176.3 396Z" fill="#02293e" stroke="#02293e"></path><path d="M960 72L960 0L888.3 0Z" fill="#001226" stroke="#001226"></path><path d="M72.7 200L98.7 252L185.3 149Z" fill="#043147" stroke="#043147"></path><path d="M185.3 149L98.7 252L185.3 253Z" fill="#012439" stroke="#012439"></path><path d="M0 540L122.7 540L127.7 446Z" fill="#000000" stroke="#000000"></path><path d="M127.7 446L122.7 540L242.3 540Z" fill="#00172a" stroke="#00172a"></path><path d="M116.7 73L185.3 149L221.3 69Z" fill="#00172a" stroke="#00172a"></path><path d="M98.7 252L0 379L144.7 395Z" fill="#002034" stroke="#002034"></path><path d="M236.3 0L116.7 73L221.3 69Z" fill="#001c2f" stroke="#001c2f"></path><path d="M0 195L0 291L72.7 200Z" fill="#002034" stroke="#002034"></path><path d="M72.7 200L0 291L98.7 252Z" fill="#032d42" stroke="#032d42"></path><path d="M0 291L0 379L98.7 252Z" fill="#001226" stroke="#001226"></path><path d="M0 118L0 195L72.7 200Z" fill="#000c21" stroke="#000c21"></path><path d="M0 379L0 427L127.7 446Z" fill="#05364c" stroke="#05364c"></path><path d="M236.3 0L75.7 0L116.7 73Z" fill="#05364c" stroke="#05364c"></path><path d="M116.7 73L0 118L72.7 200Z" fill="#002034" stroke="#002034"></path><path d="M75.7 0L0 118L116.7 73Z" fill="#012439" stroke="#012439"></path><path d="M0 427L0 540L127.7 446Z" fill="#043147" stroke="#043147"></path><path d="M75.7 0L0 0L0 118Z" fill="#001226" stroke="#001226"></path></g></svg>