<svg id="visual" viewBox="0 0 960 540" width="960" height="540" xmlns="http://www.w3.org/2000/svg" xmlns:xlink="http://www.w3.org/1999/xlink" version="1.1"><g stroke-width="1" stroke-linejoin="bevel"><path d="M491.7 270L606 251L485.3 245Z" fill="#00205a" stroke="#00205a"></path><path d="M521.3 334L615 300L606 251Z" fill="#001527" stroke="#001527"></path><path d="M491.7 270L521.3 334L606 251Z" fill="#001d45" stroke="#001d45"></path><path d="M754.7 295L634 200L606 251Z" fill="#001220" stroke="#001220"></path><path d="M606 251L634 200L485.3 245Z" fill="#00182f" stroke="#00182f"></path><path d="M491.7 270L459.7 342L521.3 334Z" fill="#001e4c" stroke="#001e4c"></path><path d="M485.3 245L459.7 342L491.7 270Z" fill="#001f53" stroke="#001f53"></path><path d="M490.3 416L585 395L521.3 334Z" fill="#001220" stroke="#001220"></path><path d="M521.3 334L585 395L615 300Z" fill="#001220" stroke="#001220"></path><path d="M634 200L448.7 114L485.3 245Z" fill="#00182f" stroke="#00182f"></path><path d="M485.3 245L343 322L459.7 342Z" fill="#00205a" stroke="#00205a"></path><path d="M448.7 114L402.7 157L485.3 245Z" fill="#001e4c" stroke="#001e4c"></path><path d="M754.7 295L693.7 155L634 200Z" fill="#001220" stroke="#001220"></path><path d="M634 200L517.3 31L448.7 114Z" fill="#00182f" stroke="#00182f"></path><path d="M754.7 295L606 251L615 300Z" fill="#001b3e" stroke="#001b3e"></path><path d="M459.7 342L490.3 416L521.3 334Z" fill="#072167" stroke="#072167"></path><path d="M708 83L517.3 31L634 200Z" fill="#001b3e" stroke="#001b3e"></path><path d="M448.7 114L350 145L402.7 157Z" fill="#00182f" stroke="#00182f"></path><path d="M777.7 337L754.7 295L615 300Z" fill="#001e4c" stroke="#001e4c"></path><path d="M754.7 295L733.7 137L693.7 155Z" fill="#012160" stroke="#012160"></path><path d="M693.7 155L708 83L634 200Z" fill="#001220" stroke="#001220"></path><path d="M402.7 157L343 322L485.3 245Z" fill="#012160" stroke="#012160"></path><path d="M459.7 342L368.7 382L490.3 416Z" fill="#001d45" stroke="#001d45"></path><path d="M384 0L350 145L448.7 114Z" fill="#001527" stroke="#001527"></path><path d="M402.7 157L350 145L343 322Z" fill="#012160" stroke="#012160"></path><path d="M343 322L368.7 382L459.7 342Z" fill="#001d45" stroke="#001d45"></path><path d="M733.7 137L708 83L693.7 155Z" fill="#012160" stroke="#012160"></path><path d="M254 234L332 340L343 322Z" fill="#00182f" stroke="#00182f"></path><path d="M343 322L332 340L368.7 382Z" fill="#001f53" stroke="#001f53"></path><path d="M585 395L777.7 337L615 300Z" fill="#012160" stroke="#012160"></path><path d="M754.7 295L832.3 222L733.7 137Z" fill="#00182f" stroke="#00182f"></path><path d="M681 0L476.7 0L517.3 31Z" fill="#001e4c" stroke="#001e4c"></path><path d="M517.3 31L472.3 0L448.7 114Z" fill="#001527" stroke="#001527"></path><path d="M476.7 0L472.3 0L517.3 31Z" fill="#001527" stroke="#001527"></path><path d="M490.3 416L552.3 517L585 395Z" fill="#001220" stroke="#001220"></path><path d="M585 395L802.7 411L777.7 337Z" fill="#001b3e" stroke="#001b3e"></path><path d="M495.7 540L552.3 517L490.3 416Z" fill="#001b3e" stroke="#001b3e"></path><path d="M783.7 0L681 0L708 83Z" fill="#012160" stroke="#012160"></path><path d="M708 83L681 0L517.3 31Z" fill="#072167" stroke="#072167"></path><path d="M146.3 72L274.3 177L183.3 0Z" fill="#001b3e" stroke="#001b3e"></path><path d="M350 145L274.3 177L343 322Z" fill="#001a36" stroke="#001a36"></path><path d="M802.7 411L815.3 331L777.7 337Z" fill="#001f53" stroke="#001f53"></path><path d="M777.7 337L815.3 331L754.7 295Z" fill="#001220" stroke="#001220"></path><path d="M848.3 47L783.7 0L708 83Z" fill="#001d45" stroke="#001d45"></path><path d="M815.3 331L832.3 222L754.7 295Z" fill="#00182f" stroke="#00182f"></path><path d="M472.3 0L384 0L448.7 114Z" fill="#00182f" stroke="#00182f"></path><path d="M274.3 177L254 234L343 322Z" fill="#001a36" stroke="#001a36"></path><path d="M495.7 540L563.3 540L552.3 517Z" fill="#001b3e" stroke="#001b3e"></path><path d="M552.3 517L580 540L585 395Z" fill="#001e4c" stroke="#001e4c"></path><path d="M563.3 540L580 540L552.3 517Z" fill="#001a36" stroke="#001a36"></path><path d="M286 540L495.7 540L368.7 382Z" fill="#012160" stroke="#012160"></path><path d="M368.7 382L495.7 540L490.3 416Z" fill="#001e4c" stroke="#001e4c"></path><path d="M580 540L802.7 411L585 395Z" fill="#072167" stroke="#072167"></path><path d="M815.3 331L867.3 320L832.3 222Z" fill="#001a36" stroke="#001a36"></path><path d="M802.7 411L867.3 320L815.3 331Z" fill="#001527" stroke="#001527"></path><path d="M848.3 47L733.7 137L832.3 222Z" fill="#001220" stroke="#001220"></path><path d="M848.3 47L708 83L733.7 137Z" fill="#012160" stroke="#012160"></path><path d="M960 96L848.3 47L832.3 222Z" fill="#00182f" stroke="#00182f"></path><path d="M254 234L187.3 290L332 340Z" fill="#001527" stroke="#001527"></path><path d="M236.3 465L274 503L368.7 382Z" fill="#00205a" stroke="#00205a"></path><path d="M153.3 297L187.3 290L121.7 174Z" fill="#001a36" stroke="#001a36"></path><path d="M187.3 290L254 234L121.7 174Z" fill="#001220" stroke="#001220"></path><path d="M236.3 465L368.7 382L332 340Z" fill="#012160" stroke="#012160"></path><path d="M187.3 290L236.3 465L332 340Z" fill="#001527" stroke="#001527"></path><path d="M180.3 540L286 540L274 503Z" fill="#001d45" stroke="#001d45"></path><path d="M274 503L286 540L368.7 382Z" fill="#00205a" stroke="#00205a"></path><path d="M187.3 290L134.7 369L236.3 465Z" fill="#00182f" stroke="#00182f"></path><path d="M121.7 174L254 234L274.3 177Z" fill="#00205a" stroke="#00205a"></path><path d="M580 540L811.7 540L802.7 411Z" fill="#001e4c" stroke="#001e4c"></path><path d="M802.7 411L922.3 390L867.3 320Z" fill="#00205a" stroke="#00205a"></path><path d="M881.3 540L922.3 390L802.7 411Z" fill="#001220" stroke="#001220"></path><path d="M960 266L960 239L832.3 222Z" fill="#001220" stroke="#001220"></path><path d="M960 96L870.3 0L848.3 47Z" fill="#072167" stroke="#072167"></path><path d="M848.3 47L870.3 0L783.7 0Z" fill="#001a36" stroke="#001a36"></path><path d="M960 266L832.3 222L867.3 320Z" fill="#001b3e" stroke="#001b3e"></path><path d="M922.3 390L960 266L867.3 320Z" fill="#001527" stroke="#001527"></path><path d="M146.3 72L121.7 174L274.3 177Z" fill="#072167" stroke="#072167"></path><path d="M82.7 340L134.7 369L153.3 297Z" fill="#001527" stroke="#001527"></path><path d="M153.3 297L134.7 369L187.3 290Z" fill="#00182f" stroke="#00182f"></path><path d="M236.3 465L180.3 540L274 503Z" fill="#001e4c" stroke="#001e4c"></path><path d="M183.3 0L274.3 177L350 145Z" fill="#072167" stroke="#072167"></path><path d="M384 0L183.3 0L350 145Z" fill="#001e4c" stroke="#001e4c"></path><path d="M960 239L960 96L832.3 222Z" fill="#00205a" stroke="#00205a"></path><path d="M811.7 540L881.3 540L802.7 411Z" fill="#001e4c" stroke="#001e4c"></path><path d="M922.3 390L960 426L960 266Z" fill="#012160" stroke="#012160"></path><path d="M960 448L960 426L922.3 390Z" fill="#00205a" stroke="#00205a"></path><path d="M881.3 540L960 448L922.3 390Z" fill="#001527" stroke="#001527"></path><path d="M86.7 421L180.3 540L236.3 465Z" fill="#001f53" stroke="#001f53"></path><path d="M121.7 174L82.7 340L153.3 297Z" fill="#072167" stroke="#072167"></path><path d="M134.7 369L86.7 421L236.3 465Z" fill="#001a36" stroke="#001a36"></path><path d="M960 96L960 0L870.3 0Z" fill="#001527" stroke="#001527"></path><path d="M82.7 340L86.7 421L134.7 369Z" fill="#001b3e" stroke="#001b3e"></path><path d="M881.3 540L960 540L960 448Z" fill="#001f53" stroke="#001f53"></path><path d="M86.7 421L103.7 540L180.3 540Z" fill="#001a36" stroke="#001a36"></path><path d="M82.7 340L0 402L86.7 421Z" fill="#001527" stroke="#001527"></path><path d="M86.7 421L0 540L103.7 540Z" fill="#00205a" stroke="#00205a"></path><path d="M121.7 174L0 311L82.7 340Z" fill="#072167" stroke="#072167"></path><path d="M0 131L0 311L121.7 174Z" fill="#001f53" stroke="#001f53"></path><path d="M0 131L121.7 174L0 120Z" fill="#001f53" stroke="#001f53"></path><path d="M45.7 0L34.7 26L146.3 72Z" fill="#001e4c" stroke="#001e4c"></path><path d="M183.3 0L45.7 0L146.3 72Z" fill="#001d45" stroke="#001d45"></path><path d="M0 120L121.7 174L146.3 72Z" fill="#001a36" stroke="#001a36"></path><path d="M0 311L0 359L82.7 340Z" fill="#001d45" stroke="#001d45"></path><path d="M34.7 26L0 120L146.3 72Z" fill="#001a36" stroke="#001a36"></path><path d="M0 359L0 402L82.7 340Z" fill="#00205a" stroke="#00205a"></path><path d="M45.7 0L0 0L34.7 26Z" fill="#00205a" stroke="#00205a"></path><path d="M34.7 26L0 0L0 120Z" fill="#001e4c" stroke="#001e4c"></path><path d="M0 402L0 540L86.7 421Z" fill="#001220" stroke="#001220"></path></g></svg>